<svg xmlns="http://www.w3.org/2000/svg" version="1.1" xmlns:xlink="http://www.w3.org/1999/xlink" width="200" height="200"><svg xmlns="http://www.w3.org/2000/svg" version="1.1" xmlns:xlink="http://www.w3.org/1999/xlink" viewBox="0 0 200 200"><rect width="200" height="200" fill="url('#gradient')"></rect><defs><linearGradient id="SvgjsLinearGradient1001" gradientTransform="rotate(78 0.5 0.5)"><stop offset="0%" stop-color="#ffffff"></stop><stop offset="100%" stop-color="#d7f4ee"></stop></linearGradient></defs><g><g fill="#2fa98e" transform="matrix(3.1235383833248602,0,0,3.1235383833248602,6.650358856360683,121.89772229056463)" stroke="#0e5278" stroke-width="0.2"><path d="M8.87 0L6.36-5.02L4.50-5.02L4.50 0L1.07 0L1.07-14.22L6.67-14.22Q9.20-14.22 10.63-13.10Q12.05-11.97 12.05-9.92L12.05-9.92Q12.05-8.44 11.45-7.46Q10.85-6.48 9.57-5.88L9.57-5.88L12.54-0.15L12.54 0L8.87 0ZM4.50-11.57L4.50-7.67L6.67-7.67Q7.65-7.67 8.14-8.18Q8.63-8.69 8.63-9.61Q8.63-10.53 8.13-11.05Q7.64-11.57 6.67-11.57L6.67-11.57L4.50-11.57ZM23.21 0L19.92 0Q19.75-0.32 19.61-0.95L19.61-0.95Q18.70 0.20 17.07 0.20L17.07 0.20Q15.58 0.20 14.53-0.71Q13.49-1.61 13.49-2.98L13.49-2.98Q13.49-4.70 14.76-5.58Q16.03-6.46 18.45-6.46L18.45-6.46L19.46-6.46L19.46-7.01Q19.46-8.47 18.20-8.47L18.20-8.47Q17.03-8.47 17.03-7.31L17.03-7.31L13.74-7.31Q13.74-8.85 15.04-9.80Q16.35-10.76 18.37-10.76Q20.39-10.76 21.56-9.78Q22.73-8.79 22.76-7.07L22.76-7.07L22.76-2.39Q22.78-0.94 23.21-0.17L23.21-0.17L23.21 0ZM17.86-2.15L17.86-2.15Q18.48-2.15 18.88-2.41Q19.29-2.68 19.46-3.01L19.46-3.01L19.46-4.70L18.51-4.70Q16.79-4.70 16.79-3.15L16.79-3.15Q16.79-2.71 17.09-2.43Q17.39-2.15 17.86-2.15ZM30.12-2.97L30.12-2.97Q30.12-3.39 29.68-3.64Q29.24-3.90 28.01-4.17Q26.78-4.44 25.98-4.89Q25.18-5.33 24.76-5.97Q24.34-6.60 24.34-7.42L24.34-7.42Q24.34-8.88 25.54-9.82Q26.74-10.76 28.68-10.76L28.68-10.76Q30.77-10.76 32.04-9.81Q33.31-8.87 33.31-7.32L33.31-7.32L30.01-7.32Q30.01-8.59 28.67-8.59L28.67-8.59Q28.15-8.59 27.80-8.31Q27.45-8.02 27.45-7.59L27.45-7.59Q27.45-7.15 27.88-6.88Q28.31-6.60 29.25-6.43Q30.20-6.25 30.91-6.01L30.91-6.01Q33.29-5.19 33.29-3.07L33.29-3.07Q33.29-1.62 32.01-0.71Q30.72 0.20 28.68 0.20L28.68 0.20Q27.32 0.20 26.26-0.29Q25.20-0.78 24.60-1.62Q24.00-2.46 24.00-3.39L24.00-3.39L27.08-3.39Q27.10-2.66 27.57-2.32Q28.04-1.98 28.77-1.98L28.77-1.98Q29.44-1.98 29.78-2.26Q30.12-2.53 30.12-2.97ZM35.37-13.19L38.66-13.19L38.66-10.57L40.40-10.57L40.40-8.28L38.66-8.28L38.66-3.45Q38.66-2.85 38.88-2.62Q39.09-2.38 39.73-2.38L39.73-2.38Q40.21-2.38 40.55-2.44L40.55-2.44L40.55-0.09Q39.66 0.20 38.69 0.20L38.69 0.20Q36.99 0.20 36.18-0.61Q35.37-1.41 35.37-3.04L35.37-3.04L35.37-8.28L34.02-8.28L34.02-10.57L35.37-10.57L35.37-13.19ZM48.14-10.64L48.09-7.59L47.00-7.67Q45.45-7.67 45.01-6.69L45.01-6.69L45.01 0L41.72 0L41.72-10.57L44.80-10.57L44.91-9.21Q45.74-10.76 47.23-10.76L47.23-10.76Q47.75-10.76 48.14-10.64L48.14-10.64ZM48.52-4.82L48.51-5.38Q48.51-6.96 49.12-8.20Q49.74-9.43 50.89-10.10Q52.04-10.76 53.59-10.76L53.59-10.76Q55.97-10.76 57.33-9.29Q58.70-7.82 58.70-5.29L58.70-5.29L58.70-5.18Q58.70-2.71 57.33-1.25Q55.96 0.20 53.61 0.20L53.61 0.20Q51.36 0.20 49.99-1.16Q48.62-2.51 48.52-4.82L48.52-4.82ZM51.81-5.77L51.80-5.18Q51.80-3.71 52.26-3.03Q52.71-2.34 53.61-2.34L53.61-2.34Q55.37-2.34 55.41-5.05L55.41-5.05L55.41-5.38Q55.41-8.22 53.59-8.22L53.59-8.22Q51.94-8.22 51.81-5.77L51.81-5.77Z"></path></g></g></svg><style>@media (prefers-color-scheme: light) { :root { filter: none; } }
@media (prefers-color-scheme: dark) { :root { filter: none; } }
</style></svg>